<svg width="369" height="348" viewBox="0 0 369 348" fill="none" xmlns="http://www.w3.org/2000/svg">
<ellipse cx="185" cy="178.5" rx="156" ry="169.5" fill="#98000F"/>
<path d="M356 3.33779C303.5 42.3378 276.333 33.5045 251 38.8378C253.333 54.1711 268.665 93.9653 303.5 83.3378C362.5 65.3378 384.053 -17.5016 356 3.33779Z" fill="#98000F"/>
<path d="M12.1886 3.33779C64.6886 42.3378 91.8553 33.5045 117.189 38.8378C114.855 54.1711 99.5233 93.9653 64.6886 83.3378C5.6886 65.3378 -15.8644 -17.5016 12.1886 3.33779Z" fill="#98000F"/>
<path d="M284.864 145.364C284.939 164.343 269.615 179.789 250.636 179.864C231.657 179.939 216.211 164.615 216.136 145.636C216.061 126.657 231.385 111.211 250.364 111.136C269.343 111.061 284.789 126.385 284.864 145.364Z" fill="white"/>
<circle cx="250.5" cy="145.5" r="26.8277" fill="#98000F"/>
<path d="M219 279C219 275.686 221.686 273 225 273C228.314 273 231 275.686 231 279V292C231 295.314 228.314 298 225 298C221.686 298 219 295.314 219 292V279Z" fill="#EF0004"/>
<path d="M205 287C205 283.686 207.686 281 211 281C214.314 281 217 283.686 217 287V310C217 313.314 214.314 316 211 316C207.686 316 205 313.314 205 310V287Z" fill="#EF0004"/>
<path d="M150.864 144.364C150.939 163.343 135.615 178.789 116.636 178.864C97.6574 178.939 82.2112 163.615 82.1361 144.636C82.0609 125.657 97.3853 110.211 116.364 110.136C135.343 110.061 150.789 125.385 150.864 144.364Z" fill="white"/>
<circle cx="116.5" cy="144.5" r="26.8277" fill="#98000F"/>
<path d="M264.696 243C249.682 271.785 219.561 291.438 184.849 291.438C150.136 291.438 120.014 271.786 105 243C124.169 262.534 152.827 274.938 184.849 274.938C216.87 274.938 245.527 262.534 264.696 243Z" fill="white"/>
<path d="M255.734 271.138C256.312 272.937 254.303 274.46 252.727 273.418L244.576 268.031C243.426 267.27 243.372 265.601 244.471 264.768L249.633 260.854C250.732 260.021 252.324 260.523 252.746 261.836L255.734 271.138Z" fill="white"/>
<path d="M113.318 271.138C112.74 272.937 114.749 274.46 116.325 273.418L124.476 268.031C125.626 267.27 125.68 265.601 124.582 264.768L119.419 260.854C118.32 260.021 116.728 260.523 116.306 261.836L113.318 271.138Z" fill="white"/>
</svg>
